<svg width="392" height="203" viewBox="0 0 392 203" fill="none" xmlns="http://www.w3.org/2000/svg">
<path fill-rule="evenodd" clip-rule="evenodd" d="M275.986 158.228V158.223L268.878 99.7002H355.057L362.166 158.228H275.986Z" fill="#ECF6FF"/>
<path fill-rule="evenodd" clip-rule="evenodd" d="M189.972 160.465C189.972 174.009 179.639 184.988 166.893 184.988C154.148 184.988 143.815 174.009 143.815 160.465C143.815 146.922 154.148 135.943 166.893 135.943C179.639 135.943 189.972 146.922 189.972 160.465" fill="#B6D4FF"/>
<path fill-rule="evenodd" clip-rule="evenodd" d="M369.534 160.465C369.534 174.009 359.201 184.988 346.455 184.988C333.709 184.988 323.377 174.009 323.377 160.465C323.377 146.922 333.709 135.943 346.455 135.943C359.201 135.943 369.534 146.922 369.534 160.465" fill="#B6D4FF"/>
<path fill-rule="evenodd" clip-rule="evenodd" d="M288.787 158.23H35.9046C20.5653 158.23 7.60896 146.126 5.64641 129.961L2 99.9358L50.8164 99.7022L50.8121 99.6814L37.5535 4.00085H236.32L268.624 98.9598L268.878 99.7022L288.787 158.23Z" fill="#CCE3FF"/>
<path fill-rule="evenodd" clip-rule="evenodd" d="M288.786 158.23H229.243L223.65 141.793L221.322 134.945L209.335 99.7022L176.78 4.00085H236.32L268.624 98.9598L268.878 99.7022L288.786 158.23Z" fill="white"/>
<path fill-rule="evenodd" clip-rule="evenodd" d="M189.851 99.6815H127.536L114.277 4.00098H157.3L170.366 42.4129L174.869 55.6424L185.533 86.9896L186.652 90.2719L189.851 99.6815Z" fill="white"/>
<path fill-rule="evenodd" clip-rule="evenodd" d="M305.413 158.226H206.501V99.7023H266.054C284.497 99.7023 300.072 114.253 302.433 133.69L305.413 158.226Z" fill="#CCE3FF"/>
<path fill-rule="evenodd" clip-rule="evenodd" d="M321.385 99.7021V158.226H305.413L298.305 99.7021H321.385Z" fill="#CCE3FF"/>
<path fill-rule="evenodd" clip-rule="evenodd" d="M305.414 158.228V158.223L298.305 99.7002H357.846C373.08 99.7002 385.944 111.719 387.894 127.772L391.593 158.228H305.414Z" fill="#ECF6FF"/>
<path fill-rule="evenodd" clip-rule="evenodd" d="M49.5151 158.729C49.5151 142.419 62.5665 129.198 78.6664 129.198C94.766 129.198 107.817 142.419 107.817 158.729H49.5151Z" fill="white"/>
<path fill-rule="evenodd" clip-rule="evenodd" d="M229.077 158.729C229.077 142.419 242.128 129.198 258.228 129.198C274.327 129.198 287.379 142.419 287.379 158.729H229.077Z" fill="white"/>
<path fill-rule="evenodd" clip-rule="evenodd" d="M281.306 160.465C281.306 174.009 270.974 184.988 258.228 184.988C245.482 184.988 235.15 174.009 235.15 160.465C235.15 146.922 245.482 135.943 258.228 135.943C270.974 135.943 281.306 146.922 281.306 160.465" fill="#B6D4FF"/>
<path fill-rule="evenodd" clip-rule="evenodd" d="M381.569 128.658C381.569 134.497 377.94 139.23 373.462 139.23C368.984 139.23 365.354 134.497 365.354 128.658C365.354 122.819 368.984 118.086 373.462 118.086C377.94 118.086 381.569 122.819 381.569 128.658" fill="white"/>
<path fill-rule="evenodd" clip-rule="evenodd" d="M330.359 128.658C330.359 134.497 326.729 139.23 322.251 139.23C317.774 139.23 314.144 134.497 314.144 128.658C314.144 122.819 317.774 118.086 322.251 118.086C326.729 118.086 330.359 122.819 330.359 128.658" fill="white"/>
<path fill-rule="evenodd" clip-rule="evenodd" d="M101.744 160.465C101.744 174.009 91.4117 184.988 78.6658 184.988C65.9198 184.988 55.5874 174.009 55.5874 160.465C55.5874 146.922 65.9198 135.943 78.6658 135.943C91.4117 135.943 101.744 146.922 101.744 160.465" fill="#B6D4FF"/>
<path fill-rule="evenodd" clip-rule="evenodd" d="M340.602 133.226H357.476V124.09H340.602V133.226Z" fill="#CCE3FF"/>
<path fill-rule="evenodd" clip-rule="evenodd" d="M138.248 99.6815V99.6898H94.3532L81.0942 4.00098H124.985L138.248 99.6815Z" fill="white"/>
<path fill-rule="evenodd" clip-rule="evenodd" d="M77.8755 99.6815H33.9812L3.32422 99.7019L39.2541 4.00012L64.6126 4.00096L77.8755 99.6815Z" fill="white"/>
<path d="M268.878 99.7005L268.623 98.9586L236.32 4.00085" stroke="#CCE3FF" stroke-width="7"/>
<path d="M3.98096 116.254H238.602" stroke="white" stroke-width="3"/>
<path d="M3.32471 99.7018L39.2546 4H235.79" stroke="#CCE3FF" stroke-width="7"/>
<path fill-rule="evenodd" clip-rule="evenodd" d="M194.507 94.6423H167.696C160.759 94.6423 155.135 88.6669 155.135 81.296C155.135 73.9251 160.759 67.9497 167.696 67.9497H194.507V94.6423Z" fill="#B6D4FF"/>
<path fill-rule="evenodd" clip-rule="evenodd" d="M250.363 175.91L255.581 169.674L253.768 163.367L242.6 174.172L251.647 194.749C251.647 194.749 251.938 189.636 251.465 183.971C251.138 180.058 250.363 175.91 250.363 175.91ZM300.646 189.531L299.455 184.525L294.409 184.873L298.608 198.621L314.74 186.443C309.953 184.555 300.646 189.531 300.646 189.531Z" fill="#0D0B6D"/>
<path fill-rule="evenodd" clip-rule="evenodd" d="M254.266 171.263L253.692 163.361L247.264 169.7L250.363 175.91L254.266 171.263ZM299.664 185.371L294.676 185.957L296.517 191.775L300.646 189.531L299.664 185.371Z" fill="#6CA1FF"/>
<path d="M290.211 105.701L304.128 186.771L300.295 188.045H300.293L295.831 189.531L295.808 189.538L294.264 190.051C294.264 190.051 287.174 160.909 280.932 134.912C279.413 138.134 277.702 141.318 275.777 144.416C262.099 166.422 253.73 175.828 253.73 175.828L252.485 173.384L252.482 173.378L249.49 167.505L247.327 163.257C247.327 163.257 266.057 140.224 274.484 107.822C273.003 101.513 271.976 97.0101 271.712 95.5692C270.202 87.3525 270.171 83.5877 270.171 83.2875H286.364L292.858 83.2875C292.622 88.6423 291.968 96.6055 290.211 105.701L290.211 105.701Z" fill="#19141E"/>
<path fill-rule="evenodd" clip-rule="evenodd" d="M304.128 186.771L300.295 188.045H300.293L295.831 189.531L295.809 189.538L294.264 190.051C294.264 190.051 287.174 160.909 280.932 134.911C278.496 124.762 276.19 115.094 274.485 107.822C273.003 101.513 271.976 97.0101 271.713 95.5692C270.202 87.3525 270.171 83.5877 270.171 83.2875H286.365L290.211 105.701L304.128 186.771Z" fill="white" fill-opacity="0.1"/>
<path d="M300.536 64.3124L296.799 66.4594L295.874 83.3H270.085L269.652 66.3092L261.498 59.7095C261.498 59.7095 265.344 51.3633 271.923 48.0415C273.638 47.1777 275.794 46.7186 277.949 46.4995C282.269 46.0593 286.576 46.5705 287.276 46.6623L287.375 46.6748C287.497 46.7145 287.619 46.7541 287.738 46.7937C287.739 46.7937 287.742 46.7958 287.743 46.7958C288.092 46.9127 288.422 47.0254 288.736 47.1359C293.101 48.6821 294.482 49.934 296.928 53.6397C299.253 57.1618 300.536 64.3124 300.536 64.3124" fill="#ED4848"/>
<path opacity="0.200219" d="M269.653 66.3085L271.721 67.8236L276.694 61.5746" stroke="black" stroke-width="5"/>
<path fill-rule="evenodd" clip-rule="evenodd" d="M290.001 78.382C290.001 78.382 290.815 78.6053 290.831 79.1561C290.831 79.3126 285.868 80.3225 285.868 80.3225L286.949 80.3913L288.071 80.3329C288.071 80.3329 288.655 80.4498 288.688 80.9714C288.699 81.178 287.666 81.3991 286.464 81.5682C284.594 81.8331 283.25 81.5995 281.935 81.2134C281.825 81.1801 281.718 81.1508 281.616 81.1216L282.684 73.729C283.043 74.0816 283.722 74.7076 286.642 75.4921C287.228 75.6486 289.194 75.6778 289.194 75.6778C289.772 75.7676 290.986 75.8886 291.069 76.621C291.091 76.8025 290.879 76.9986 290.879 76.9986C290.879 76.9986 291.641 77.055 291.688 77.7978C291.707 78.0899 290.001 78.382 290.001 78.382" fill="#18181C"/>
<path fill-rule="evenodd" clip-rule="evenodd" d="M298.459 88.677H280.418L284.464 61.8837H302.505L298.459 88.677Z" fill="#18181C"/>
<path fill-rule="evenodd" clip-rule="evenodd" d="M299.428 88.677H281.388L285.433 61.8837H303.474L299.428 88.677Z" fill="#5E93D1"/>
<path fill-rule="evenodd" clip-rule="evenodd" d="M277.949 46.4995C278.585 47.5783 280.588 50.2678 284.887 50.5412C290.022 50.8646 288.857 47.4594 288.737 47.1359C288.729 47.1192 288.725 47.1109 288.725 47.1109C288.725 47.1109 288.343 46.9732 287.744 46.7958C287.743 46.7958 287.742 46.7953 287.741 46.7948C287.74 46.7943 287.739 46.7937 287.738 46.7937C287.596 46.752 287.441 46.7082 287.276 46.6623C286.576 46.5705 282.269 46.0593 277.949 46.4995ZM277.265 72.6728L278.517 72.2121C278.517 72.2121 279.32 71.8741 280.675 71.6049C281.176 71.5054 281.596 71.4876 282.036 71.469H282.036H282.036C282.343 71.456 282.66 71.4425 283.022 71.4004L282.723 73.464C282.667 73.5078 282.616 73.56 282.568 73.6163C282.595 73.6412 282.623 73.6683 282.652 73.6977L282.684 73.729C283.043 74.0816 283.722 74.7076 286.642 75.4921C287.228 75.6486 289.194 75.6778 289.194 75.6778C289.237 75.6845 289.283 75.6913 289.332 75.6986L289.333 75.6986C289.946 75.7889 290.992 75.9429 291.069 76.621C291.091 76.8025 290.879 76.9986 290.879 76.9986C290.879 76.9986 291.641 77.055 291.688 77.7978C291.707 78.0899 290.001 78.382 290.001 78.382C290.001 78.382 290.815 78.6053 290.831 79.1561C290.831 79.3126 285.868 80.3225 285.868 80.3225L286.949 80.3914L288.071 80.3329C288.071 80.3329 288.655 80.4498 288.688 80.9714C288.7 81.178 287.666 81.3992 286.464 81.5682C284.594 81.8332 283.25 81.5995 281.936 81.2135C281.855 81.1891 281.776 81.167 281.7 81.1455L281.616 81.1216C281.421 81.0667 281.242 81.0183 281.073 80.9725L281.073 80.9724C280.065 80.6997 279.408 80.5221 277.918 79.6485C277.756 79.554 277.579 79.4401 277.396 79.3149C272.926 79.7714 259.38 80.8939 258.022 77.8912C255.337 71.9525 262.404 60.4598 262.404 60.4598L270.226 66.3455L267.74 70.8888L277.265 72.6728ZM295.228 87.7568H299.382L300.314 81.5859L302.224 90.3656C303.403 91.8207 304.763 93.5384 304.969 93.9613C305.342 94.7279 306.032 98.5237 305.999 99.2736C305.966 100.024 303.817 103.393 303.817 103.393C302.483 103.051 303.354 101.311 303.354 101.311C303.354 101.311 302.16 102.368 301.663 102.35C296.985 102.184 297.236 99.7054 297.346 99.3953C297.595 98.6982 298.843 99.4952 298.843 99.4952C298.843 99.4952 296.675 94.892 296.956 91.3744C296.47 90.3872 295.873 89.1481 295.228 87.7568Z" fill="#6CA1FF"/>
<path opacity="0.199382" d="M299.845 93.6146C299.845 93.6146 300.501 96.2088 302.754 97.0174C303.541 97.3001 303.345 100.637 305.275 100.238" stroke="black" stroke-width="3"/>
<path fill-rule="evenodd" clip-rule="evenodd" d="M287.118 64.045C287.037 64.4886 286.798 64.8118 286.584 64.7665C286.37 64.7215 286.261 64.3252 286.342 63.8816C286.423 63.438 286.662 63.1148 286.876 63.1601C287.09 63.2052 287.199 63.6014 287.118 64.045" fill="#020101"/>
<path d="M286.941 46.8624L286.774 40.6627C286.774 40.6627 293.768 41.2625 295.265 40.4253C295.265 40.4253 297.093 30.2771 294.912 24.6573L294.868 24.4384L280.108 22.5786L279.189 31.5912C278.692 30.0117 274.68 28.3308 273.607 30.5928C271.283 35.4943 279.594 38.7945 279.594 38.7945L278.75 46.937" fill="#6CA1FF"/>
<path opacity="0.400274" fill-rule="evenodd" clip-rule="evenodd" d="M286.774 40.6625L282.058 39.5732L286.751 42.9885L286.774 40.6625Z" fill="black"/>
<path fill-rule="evenodd" clip-rule="evenodd" d="M290.664 30.5312L292.294 34.823L290.341 34.8498L290.664 30.5312Z" fill="#2437A8"/>
<path fill-rule="evenodd" clip-rule="evenodd" d="M288.806 31.7509C288.903 32.3289 288.547 32.8819 288.01 32.9865C287.474 33.0911 286.96 32.7073 286.863 32.1295C286.766 31.5515 287.122 30.9983 287.659 30.8937C288.196 30.7893 288.709 31.173 288.806 31.7509" fill="#312F80"/>
<path fill-rule="evenodd" clip-rule="evenodd" d="M293.932 31.7509C294.029 32.3289 293.673 32.8819 293.136 32.9865C292.6 33.0911 292.086 32.7073 291.989 32.1295C291.892 31.5515 292.248 30.9983 292.785 30.8937C293.322 30.7893 293.835 31.173 293.932 31.7509" fill="#312F80"/>
<path fill-rule="evenodd" clip-rule="evenodd" d="M288.638 36.0651C288.638 36.0651 289.32 37.2574 290.673 37.1564Z" fill="white"/>
<path d="M288.638 36.0651C288.638 36.0651 289.32 37.2574 290.673 37.1564" stroke="#252535" stroke-width="4"/>
<path fill-rule="evenodd" clip-rule="evenodd" d="M279.279 31.6872C278.177 30.4564 276.977 29.9349 276.25 29.7183L276.388 26.6122L283.322 25.3099C282.844 28.7752 280.988 30.6658 279.279 31.6872V31.6872Z" fill="#F6B852"/>
<path fill-rule="evenodd" clip-rule="evenodd" d="M295.322 25.869C294.697 25.229 290.626 25.0307 285.732 25.4366C284.593 25.5311 283.502 25.65 282.493 25.7878C279.157 26.2391 276.702 26.8811 276.303 27.4456C275.859 20.3915 279.87 16.1904 285.122 15.7996C288.567 15.5428 291.692 16.991 293.562 20.0082C294.519 21.5546 295.149 23.5145 295.322 25.869" fill="#393954"/>
<path fill-rule="evenodd" clip-rule="evenodd" d="M295.4 26.0087H295.399C295.392 25.9596 295.365 25.9124 295.322 25.8689C294.697 25.2289 290.626 25.0306 285.731 25.4366C284.593 25.531 283.502 25.6499 282.493 25.7878C283.928 24.3188 286.554 21.9964 289.652 20.9541C290.976 20.5085 292.32 20.1838 293.562 20.0082C296.577 19.5777 298.997 20.0195 299.118 21.7056C299.274 23.8996 295.921 25.7368 295.4 26.0087" fill="#161629"/>
</svg>
