<svg width="168" height="103" viewBox="0 0 168 103" fill="none" xmlns="http://www.w3.org/2000/svg">
<path d="M0 101.689V74.634H5.55199L12.034 93.0936C12.2595 93.77 12.4943 94.5497 12.7386 95.4328C13.0016 96.3158 13.1707 96.8889 13.2459 97.1519H13.415C13.4901 96.8701 13.6498 96.2689 13.8941 95.3482C14.1383 94.4276 14.3732 93.6761 14.5986 93.0936L21.1089 74.634H26.6327V101.689H22.8844V83.8215L22.9407 78.7768H22.6871C22.6495 78.9647 22.565 79.3405 22.4334 79.9041C22.3019 80.4678 22.161 80.9563 22.0107 81.3696L14.655 101.689H11.5549L4.34014 81.3696C4.20862 81.0126 4.06771 80.5335 3.9174 79.9323C3.76709 79.3499 3.68254 78.9647 3.66375 78.7768H3.41011L3.49466 83.8215V101.689H0ZM41.1749 102.168C37.8306 102.168 35.3505 101.285 33.7347 99.5193C32.1001 97.7532 31.2828 95.0194 31.2828 91.3181C31.2828 87.6168 32.1001 84.8831 33.7347 83.117C35.3505 81.3508 37.8306 80.4678 41.1749 80.4678C44.1811 80.4678 46.4263 81.2663 47.9106 82.8633C49.3949 84.4415 50.137 86.9968 50.137 90.529V92.2763H34.862C34.9935 94.6625 35.5666 96.4286 36.5812 97.5747C37.5957 98.7208 39.127 99.2938 41.1749 99.2938C42.8283 99.2938 44.1717 98.9087 45.2051 98.1383C46.2384 97.3868 46.7551 96.2219 46.7551 94.6437H50.137C50.137 97.0486 49.301 98.9087 47.6288 100.224C45.9566 101.52 43.8053 102.168 41.1749 102.168ZM34.9466 89.3735H46.5015C46.5015 85.3528 44.726 83.3424 41.1749 83.3424C39.2022 83.3424 37.7273 83.8215 36.7503 84.7797C35.7545 85.7192 35.1532 87.2504 34.9466 89.3735ZM62.1992 102.168C59.0428 102.168 56.7318 101.295 55.2663 99.5475C53.8008 97.8001 53.0681 95.057 53.0681 91.3181C53.0681 87.6168 53.8102 84.8831 55.2945 83.117C56.7788 81.3508 59.0804 80.4678 62.1992 80.4678C65.0551 80.4678 67.1406 81.1536 68.4558 82.5251C69.771 83.8967 70.4286 85.9352 70.4286 88.6408H66.8776C66.8776 86.7619 66.5394 85.4091 65.863 84.5825C65.1866 83.7558 63.9654 83.3424 62.1992 83.3424C60.2828 83.3424 58.8831 83.9718 58 85.2307C57.0982 86.4707 56.6473 88.4998 56.6473 91.3181V91.4872C56.6473 94.2679 57.0794 96.2595 57.9437 97.4619C58.8079 98.6832 60.2265 99.2938 62.1992 99.2938C63.9466 99.2938 65.196 98.8523 65.9475 97.9692C66.6991 97.0862 67.0749 95.7616 67.0749 93.9955H70.4286C70.4286 96.3628 69.7522 98.3168 68.3994 99.8575C67.0655 101.398 64.9987 102.168 62.1992 102.168ZM74.036 101.689V73.1685H77.5306V83.2579H77.7843C79.231 81.3978 81.4199 80.4678 84.3509 80.4678C88.6534 80.4678 90.8047 82.8257 90.8047 87.5416V101.689H87.3382V87.7671C87.3382 86.1137 86.9718 84.9676 86.2391 84.3288C85.5063 83.6712 84.4448 83.3424 83.0545 83.3424C82.0399 83.3424 81.1192 83.5867 80.2925 84.0752C79.4471 84.5637 78.7707 85.2682 78.2634 86.1889C77.7749 87.1095 77.5306 88.1898 77.5306 89.4299V101.689H74.036ZM101.627 102.168C99.842 102.168 98.2543 101.746 96.864 100.9C95.4548 100.055 94.7503 98.5329 94.7503 96.3346C94.7503 93.6667 95.934 91.8442 98.3013 90.8672C100.669 89.8714 104.088 89.3735 108.56 89.3735V87.0907C108.56 85.8883 108.222 84.9676 107.545 84.3288C106.869 83.6712 105.629 83.3424 103.825 83.3424C102.153 83.3424 100.95 83.6618 100.218 84.3006C99.5038 84.9206 99.1468 85.691 99.1468 86.6116V87.0907H95.793C95.7555 86.9404 95.7367 86.6492 95.7367 86.217C95.7367 84.3758 96.507 82.9572 98.0477 81.9615C99.5695 80.9657 101.608 80.4678 104.163 80.4678C106.737 80.4678 108.691 81.0032 110.025 82.0742C111.378 83.1639 112.054 84.6952 112.054 86.668V97.9129C112.054 98.3826 112.186 98.7302 112.449 98.9556C112.712 99.1811 113.041 99.2938 113.435 99.2938H115.014V101.548C114.318 101.849 113.417 101.999 112.308 101.999C111.425 101.999 110.683 101.736 110.082 101.21C109.462 100.665 109.048 99.942 108.842 99.0402H108.56C107.865 100.017 106.906 100.788 105.685 101.351C104.445 101.896 103.092 102.168 101.627 102.168ZM102.529 99.2938C103.562 99.2938 104.539 99.0778 105.46 98.6456C106.38 98.2323 107.132 97.6123 107.714 96.7856C108.278 95.9589 108.56 94.9537 108.56 93.77V92.2763C105.178 92.2763 102.641 92.5394 100.95 93.0654C99.2407 93.6103 98.3859 94.6343 98.3859 96.1374C98.3859 97.2647 98.7334 98.0726 99.4286 98.5611C100.124 99.0496 101.157 99.2938 102.529 99.2938ZM117.916 101.689V80.9469H120.566L120.96 83.737H121.242C122.764 81.5575 125.094 80.4678 128.231 80.4678C130.298 80.4678 131.895 81.022 133.022 82.1306C134.131 83.2579 134.685 85.0616 134.685 87.5416V101.689H131.219V87.7671C131.219 86.1137 130.852 84.9676 130.12 84.3288C129.387 83.6712 128.316 83.3424 126.907 83.3424C125.911 83.3424 124.99 83.5867 124.145 84.0752C123.318 84.5637 122.651 85.2682 122.144 86.1889C121.637 87.1095 121.383 88.1898 121.383 89.4299V101.689H117.916ZM139.871 77.0295V73.1685H143.337V77.0295H139.871ZM139.871 101.689V80.9469H143.337V101.689H139.871ZM154.272 102.168C152.468 102.168 150.871 101.746 149.481 100.9C148.091 100.055 147.396 98.5329 147.396 96.3346C147.396 93.6667 148.579 91.8442 150.947 90.8672C153.314 89.8714 156.733 89.3735 161.205 89.3735V87.0907C161.205 85.8883 160.867 84.9676 160.191 84.3288C159.495 83.6712 158.255 83.3424 156.47 83.3424C154.779 83.3424 153.577 83.6618 152.863 84.3006C152.13 84.9206 151.764 85.691 151.764 86.6116V87.0907H148.41C148.391 86.9404 148.382 86.6492 148.382 86.217C148.382 84.3758 149.143 82.9572 150.665 81.9615C152.187 80.9657 154.225 80.4678 156.78 80.4678C159.354 80.4678 161.318 81.0032 162.671 82.0742C164.005 83.1639 164.672 84.6952 164.672 86.668V97.9129C164.672 98.3826 164.803 98.7302 165.066 98.9556C165.329 99.1811 165.658 99.2938 166.053 99.2938H167.631V101.548C166.954 101.849 166.062 101.999 164.953 101.999C164.052 101.999 163.3 101.736 162.699 101.21C162.098 100.665 161.694 99.942 161.487 99.0402H161.205C160.491 100.017 159.524 100.788 158.302 101.351C157.081 101.896 155.738 102.168 154.272 102.168ZM155.174 99.2938C156.189 99.2938 157.156 99.0778 158.077 98.6456C158.997 98.2323 159.749 97.6123 160.331 96.7856C160.914 95.9589 161.205 94.9537 161.205 93.77V92.2763C157.804 92.2763 155.259 92.5394 153.568 93.0654C151.877 93.6103 151.031 94.6343 151.031 96.1374C151.031 97.2647 151.379 98.0726 152.074 98.5611C152.769 99.0496 153.802 99.2938 155.174 99.2938Z" fill="#19CEDA"/>
<path d="M62.5752 10.7031L105.257 53.3852" stroke="#19CEDA" stroke-width="0.206535" stroke-miterlimit="10"/>
<path d="M83.8735 36.5427C87.002 36.5427 89.5381 34.0066 89.5381 30.8782C89.5381 27.7497 87.002 25.2136 83.8735 25.2136C80.7451 25.2136 78.209 27.7497 78.209 30.8782C78.209 34.0066 80.7451 36.5427 83.8735 36.5427Z" stroke="#19CEDA" stroke-width="1.73559"/>
<path d="M109.084 62.9974C112.211 62.9974 114.746 60.4624 114.746 57.3354C114.746 54.2083 112.211 51.6733 109.084 51.6733C105.957 51.6733 103.422 54.2083 103.422 57.3354C103.422 60.4624 105.957 62.9974 109.084 62.9974Z" stroke="#19CEDA" stroke-width="1.73559"/>
<path d="M58.6646 63C61.793 63 64.3291 60.4639 64.3291 57.3354C64.3291 54.207 61.793 51.6709 58.6646 51.6709C55.5361 51.6709 53 54.207 53 57.3354C53 60.4639 55.5361 63 58.6646 63Z" stroke="#19CEDA" stroke-width="1.73559"/>
<path d="M109.084 12.3265C112.211 12.3265 114.746 9.79153 114.746 6.66447C114.746 3.53742 112.211 1.00244 109.084 1.00244C105.957 1.00244 103.422 3.53742 103.422 6.66447C103.422 9.79153 105.957 12.3265 109.084 12.3265Z" stroke="#19CEDA" stroke-width="1.73559"/>
<path d="M58.6646 12.3291C61.793 12.3291 64.3291 9.793 64.3291 6.66455C64.3291 3.53611 61.793 1 58.6646 1C55.5361 1 53 3.53611 53 6.66455C53 9.793 55.5361 12.3291 58.6646 12.3291Z" stroke="#19CEDA" stroke-width="1.73559"/>
<path d="M105.217 10.7031L62.5322 53.3852" stroke="black" stroke-width="0.206535" stroke-miterlimit="10"/>
</svg>
